# xmcd
#
# Track frame offsets:
#	150
#	14934
#	28665
#	44247
#	55377
#	67143
#	77023
#	91942
#	105955
#	116202
#	129988
#	140515
#
# Disc length: 2002 seconds
#
# Revision: 1
# Processed by: cddbd v1.5.2PL0 Copyright (c) Steve Scherf et al.
# Submitted via: audiograbber 1.83.01
#
DISCID=af07d00c
DTITLE=Sam Cooke - My Kind Of Blues
DYEAR=1961
DGENRE=Oldies
TTITLE0=Don't Get Around Much Anymore
TTITLE1=Little Girl Blue
TTITLE2=Nobody Knows When You're Down And Out
TTITLE3=Out In The Cold Again
TTITLE4=But Not For Me
TTITLE5=Exactly Like You
TTITLE6=I'm Just A Lucky So and So
TTITLE7=Since I Met You Baby
TTITLE8=Baby, Won't You Please Come Home
TTITLE9=Trouble In Mind
TTITLE10=You're Always On My Mind
TTITLE11=The Song Is Ended
EXTD=
EXTT0=
EXTT1=
EXTT2=
EXTT3=
EXTT4=
EXTT5=
EXTT6=
EXTT7=
EXTT8=
EXTT9=
EXTT10=
EXTT11=
PLAYORDER=
